<?xml version="1.0" encoding="utf-8"?>
<!-- Generator: Adobe Illustrator 14.0.0, SVG Export Plug-In . SVG Version: 6.00 Build 43363)  -->
<!DOCTYPE svg PUBLIC "-//W3C//DTD SVG 1.1//EN" "http://www.w3.org/Graphics/SVG/1.1/DTD/svg11.dtd">
<svg version="1.1" xmlns="http://www.w3.org/2000/svg" xmlns:xlink="http://www.w3.org/1999/xlink" x="0px" y="0px" width="500px"
	 height="500px" viewBox="0 0 500 500" enable-background="new 0 0 500 500" xml:space="preserve">
<g id="レイヤー_1">
</g>
<g id="レイヤー_3">
</g>
<g id="レイヤー_2">
	<g>
		<polygon fill-rule="evenodd" clip-rule="evenodd" fill="#399DCE" points="207.436,249.661 179.441,237.614 151.447,249.661 
			163.496,221.667 151.447,193.673 179.441,205.603 207.436,193.673 195.506,221.667 		"/>
		<polygon fill-rule="evenodd" clip-rule="evenodd" fill="#6FB8DB" points="196.805,245.056 179.441,237.612 151.447,249.661 
			179.441,221.667 199.758,241.983 		"/>
		<polygon fill-rule="evenodd" clip-rule="evenodd" fill="#399DCE" points="163.496,221.667 151.447,193.673 179.441,205.603 
			207.436,193.673 195.506,221.667 		"/>
		<polygon fill-rule="evenodd" clip-rule="evenodd" fill="#6FB8DB" points="163.496,221.667 151.447,193.673 179.441,221.667 		"/>
		<polygon fill-rule="evenodd" clip-rule="evenodd" fill="#6FB8DB" points="207.436,249.661 179.441,237.614 179.441,205.603 
			207.436,193.673 195.506,221.667 		"/>
		<polygon fill-rule="evenodd" clip-rule="evenodd" fill="#399DCE" points="207.436,249.661 179.441,237.614 179.441,221.667 		"/>
		<polygon fill-rule="evenodd" clip-rule="evenodd" fill="#6FB8DB" points="179.441,221.667 179.441,205.603 207.436,193.673 
			195.506,221.667 		"/>
		<polygon fill-rule="evenodd" clip-rule="evenodd" fill="#399DCE" points="207.436,193.673 195.506,221.667 179.441,221.667 		"/>
		<path fill-rule="evenodd" clip-rule="evenodd" fill="#FFCC00" d="M179.441,160.835c33.547,0,60.832,27.285,60.832,60.832
			c0,33.545-27.285,60.832-60.832,60.832s-60.832-27.287-60.832-60.832C118.609,188.12,145.895,160.835,179.441,160.835
			 M179.441,168.986c29.057,0,52.682,23.625,52.682,52.681c0,29.059-23.625,52.682-52.682,52.682s-52.682-23.623-52.682-52.682
			C126.76,192.61,150.385,168.986,179.441,168.986"/>
		<polygon fill-rule="evenodd" clip-rule="evenodd" fill="#399DCE" points="230.824,221.667 194.207,236.313 179.441,273.05 
			164.795,236.313 128.059,221.667 164.795,206.901 179.441,170.285 194.207,206.901 		"/>
		<polygon fill-rule="evenodd" clip-rule="evenodd" fill="#6FB8DB" points="216.885,227.218 194.207,236.313 179.441,273.048 
			179.441,221.667 216.885,221.667 		"/>
		<polygon fill-rule="evenodd" clip-rule="evenodd" fill="#399DCE" points="164.795,236.313 128.061,221.667 164.795,206.901 
			179.441,170.285 194.207,206.901 		"/>
		<polygon fill-rule="evenodd" clip-rule="evenodd" fill="#6FB8DB" points="164.795,236.313 128.061,221.667 179.441,221.667 		"/>
		<polygon fill-rule="evenodd" clip-rule="evenodd" fill="#6FB8DB" points="230.824,221.667 194.207,236.313 164.795,206.901 
			179.441,170.285 194.207,206.901 		"/>
		<polygon fill-rule="evenodd" clip-rule="evenodd" fill="#399DCE" points="230.824,221.667 194.207,236.313 179.441,221.667 		"/>
		<polygon fill-rule="evenodd" clip-rule="evenodd" fill="#6FB8DB" points="179.441,221.667 164.795,206.901 179.441,170.285 
			194.207,206.901 		"/>
		<polygon fill-rule="evenodd" clip-rule="evenodd" fill="#399DCE" points="179.441,170.285 194.207,206.901 179.441,221.667 		"/>
	</g>
</g>
<g id="レイヤー_4">
</g>
</svg>
